# xmcd
#
# Track frame offsets:
#	187
#	18592
#	47740
#	67427
#	133637
#	203685
#	226787
#	260350
#	297625
#
# Disc length: 4613
#
# Revision: 3
# Processed by: cddbd v1.5.1PL0 Copyright (c) Steve Scherf et al.
# Submitted via: ExactAudioCopy v0.90b4
# Normalized: r2:DSETVAR1
#
DISCID=89120309
DTITLE=Various Artist - The 3 Bs Sampler
DYEAR=1992
DGENRE=Classical
TTITLE0=Bach - Violin Concerto No 1 in A Minor, BWV 1041. 1. Allegro
TTITLE1=Bach - Violin Concerto No 1 in A Minor, BWV 1041. 1. Andante
TTITLE2=Bach - Violin Concerto No 1 in A Minor, BWV 1041. 1. Allegro assai
TTITLE3=Beethoven - Symphony No. 3 in E-Flat Major, Op. 55 "Eroica". I. Allegro con brio
TTITLE4=Brahms - Symphony No. 2 in D Major, Op. 73. I. Allegro non troppo
TTITLE5=Brahms - Sonata for Viola and Piano in E-Flat Major, Op. 120, No. 2. II. Allegro appassionato
TTITLE6=Bach - Concerto for Two Pianos in C Major, BWV 1061. I. Allegro moderato
TTITLE7=Beethoven - Piano Cocnerto No 5  in E-Flat Major, Op. 73 "Emperor".  II Adagio un poco mosso
TTITLE8=Beethoven - Piano Cocnerto No 5  in E-Flat Major, Op. 73 "Emperor".III. Rondo: Allegro
EXTD=nice light exposure to the otherwise mystical arena of classical symphony
EXTT0=
EXTT1=
EXTT2=
EXTT3=
EXTT4=
EXTT5=
EXTT6=
EXTT7=
EXTT8=
PLAYORDER=
